# xmcd
#
# Track frame offsets: 
#        150
#        25153
#        53238
#        85858
#        103899
#        123088
#        157028
#        187930
#        214542
#        242883
#
# Disc length: 3529 seconds
#
# Revision: 1
# Processed by: cddbd v1.5.2PL0 Copyright (c) Steve Scherf et al.
# Submitted via: ExactAudioCopy v0.99pb5
#
DISCID=7e0dc70a
DTITLE=Eric Longsworth - Sans Soucis
DYEAR=1999
DGENRE=Jazz
TTITLE0=Pierre et le chat
TTITLE1=Bunji
TTITLE2=Stop and go
TTITLE3=Enfantillage
TTITLE4=My pal Reggie
TTITLE5=To err is human
TTITLE6=Sur les quais
TTITLE7=Sans souci
TTITLE8=Le funambule
TTITLE9=Childhood
EXTD=YEAR: 1999
EXTT0=
EXTT1=
EXTT2=
EXTT3=
EXTT4=
EXTT5=
EXTT6=
EXTT7=
EXTT8=
EXTT9=
PLAYORDER=
